<svg width="250" height="76" xmlns="http://www.w3.org/2000/svg"><g fill="#000" fill-rule="evenodd"><path d="M46.221 2.563C41.786 1.556 34.604-.471 24.914.295 16.85.935 9.7 3.5 3.186 6.075l-.597.43a.35.35 0 0 1-.118.105 10.19 10.19 0 0 0-1.464.956c-.169.16-.277.373-.307.604-.043.323-.582.913-.65 1.204-.018.082.029.162.021.23.015.043.036.083.054.122.054.12.062.256.021.381a4.554 4.554 0 0 1-.085.226c-.093.863.121 1.564.357 2.33a.571.571 0 0 1 .01.251l-.035.227a.72.72 0 0 1 .014.47c-.15.54.307 1.064.757 1.478.138.123.328.17.507.125.336-.086.697-.136 1.05.047 1.008.54 2.147 1.305 3.322 1.114 2.296-.359 6.071-1.513 9.725-2.684a.54.54 0 0 1 .546.124c.146.14.202.35.147.544-.982 3.415-2.282 9.888-2.529 11.11-.328 1.628-3.336 11.307-3.775 13.525-.432 2.218-3.214 11.764-3.893 14.726-.114.496-.232 1.013-.343 1.527a.55.55 0 0 0 .068.41c.3.546.479 2.228.85 2.387.129.05.234.146.297.27.189.413.793.384.993-.026 1.017-2.088 2.446-5.66 2.978-7.145 1.232-3.436 4.44-7.954 5.597-9.274 1.157-1.319.517-4.262 1.575-5.94 1.06-1.676 2.546-4.497 3.275-5.762 1.046-1.82 4.089-5.234 6.06-7.843 1.518-2.013.94-3.63 4.075-6.366.47-.378.693-.986.582-1.581a.538.538 0 0 1 .061-.334c.046-.09.093-.179.143-.266a.542.542 0 0 0 .021-.467c-.16-.403-.271-.816-.464-1.208-.221-.453.643-1.222 1.268-1.14l.114.008a.84.84 0 0 1 .168-.065c.593-.158 1.21-.144 1.829-.047 3.439.27 6.893 1.247 8.478.777 1.775-.525 3.675-1.079 4.622-1.309.618-.15-.086 3.803-1.043 6.944a.42.42 0 0 0-.022.094 7.083 7.083 0 0 1-.564 2.185.611.611 0 0 1-.132.187c-.536.503-1.114.981-1.596 1.499-1.661 1.783-2.511 4.583-4.575 5.941-1.704 1.122-3.79 1.851-5.165 3.433-.428.496-.668 1.117-1.125 1.588-.657.669-1.507.823-2.285 1.258a1.94 1.94 0 0 0-.586.432.582.582 0 0 1-.293.2c-.764.23-1.332.45-1.204.986.404 1.653 6.143 1.013 11.429-.762 5.279-1.776 5.829-4.569 7.914-6.603 2.807-2.735 3.572-3.86 4.7-9.525 1.125-5.657-2.25-14.377-7.743-15.62zm116.875 29.483c-1.378.888-3.01.892-4.589.669l-.096-.025a14.714 14.714 0 0 0-3.35-.41c-1.297 0-2.6.255-3.84.69-3.3 1.366-5.825 4.4-6.692 7.843-.44 1.747-.436 3.666.221 5.359.375.97 1.05 1.696 1.868 2.228 1.982.604 4.082.615 4.26.568a.183.183 0 0 0 .022-.029c1.643-.323 3.24-1.764 4.35-3.019 1.332-1.506 2.425-3.256 3.843-4.687.69-.693 1.446-1.38 2.257-1.933.5-.342.986-.471 1.193-1.057a.48.48 0 0 0-.007-.36c.178-.226-.065-.618-.393-.47a8.76 8.76 0 0 0-.307.143.517.517 0 0 0-.19.094l-.185.097c.188-.377.294-.79.31-1.211a1.54 1.54 0 0 0-.117-.633l.846-1.147c.246.011.5 0 .76-.053.494-.09.544-.81.136-1.043a1.002 1.002 0 0 1-.078-.047.826.826 0 0 0 .478-.657.47.47 0 0 0-.042-.27c.232-.36-.247-.906-.658-.64zm-3.06 4.526c-.065.287-.05.531-.075.826-.03.242-.125.47-.275.662-.772.632-1.786 1.588-2.886 2.587-.704.496-1.418.985-2.118 1.492-.468.338-1.9 1.495-2.45.507-.125-.223 0-.877.022-1.114.167-1.884.928-3.886 2.5-5.007 1.107-.302 2.285-.396 3.457-.36.11.062.234.093.36.09l.365-.05c.388.033.775.079 1.16.137l-.06.23z"/><path d="M140.49 73.657l.16-1.387.754-.82s.321 1.959 2.771 1.481c3.086-.604 15.929-32.643 16.736-36.209.453-2.002 3.082-8.381 5.114-7.27 2.036 1.106 2.05 4.87 1.675 6.21-.375 1.32-2.5 6.542-3.346 7.548-.847 1.003-2.05 8.626-6.65 12.91-4.097 3.814-8.254 18.13-12.429 19.104-2.518.59-4.786-1.567-4.786-1.567zM87.006 39.681l-4.636-2.473c-.596-.482-2.321 1.394-4.771 3.465h-.007a468.671 468.671 0 0 1-4.618 2.393c-1.564.798-3.275 1.301-5.05 1.147-.89-.072-1.618-.528-2.382-.87a2.407 2.407 0 0 1-.207-.568c-.225-1.017-.015-2.016.375-2.969l.075-.165a2.635 2.635 0 0 0-.632-3.429c-.125-.097-.251-.192-.379-.284-1.064-.765-1.893-1.588-2.929-1.319-.021.007-.035-.007-.035-.029.057-.363.035-.88-.054-1.628-.14-1.16-.6-2.735-1.743-3.321a1.793 1.793 0 0 0-1.121-.15l-1.297.218c-.203.036-.403.09-.596.155l-.004.003h-.003c-3.34 1.672-6.643 3.39-9.664 5.608-.472.337-.901.73-1.279 1.171-1.46 1.725-2.232 4.069-2.64 6.225-.546 2.912.276 5.356 1.904 7.408l.168.007c.132.125.281.23.443.313.643.298 1.41.349 2.107.17 1.654-.062 2.968-.878 4.343-2.025h.007c1.154-.589 2.368-1.617 3.5-2.738l2.26-1.647c.78-.564 1.537-1.171 2.337-1.725.014-.007.035 0 .042.018.786 2.764 3.054 5.14 4.004 5.607 1.44.708 2.61.712 4.257.392 4.354-.852 16.622-7.329 18.107-8.648.107-.097.143-.208.118-.309v-.003zm-32.55 1.473c-1.146.996-2.768 1.805-4.286 2.311-.028.008-.05-.025-.035-.046.946-1.244 1.546-2.703 2.743-3.803.914-.838 1.7-1.574 2.907-1.97.693-.223 1.4-.33 2.11-.428.025 0 .043.026.029.047-.932 1.485-2.229 2.815-3.468 3.89z"/><path d="M120 48.774c-.11-.018-.221-.025-.332-.04.46-.035.475-.625 0-.6-.14.007-.34.033-.564.061a1.28 1.28 0 0 1-.872-.244.426.426 0 0 0-.307-.065l-.34.043c.115-.093.1-.248.011-.359l.322-.1.007-.004a.818.818 0 0 0 .086-.029c.246-.08.225-.284.085-.413l.05-.018c.322-.155.122-.64-.264-.525l-.221.072a1.537 1.537 0 0 1-.75.021.497.497 0 0 0-.347.065c-.928.457-2.26.51-3.253.64a19.07 19.07 0 0 1-3.297.136c-1.832-.09-6.55-.736-6.739-2.138-.375-2.75 1.69-3.598 2.136-7.106.471-3.684-3.229-7.821-7.486-7.214-.604.087-1.343.504-2.171 1.093-.051.037-.099.078-.143.122-.872.827-1.711 1.125-2.543 1.991l-.09.087A19.59 19.59 0 0 1 87.8 37.44c-.436.184-.86.295-1.296.36-.25.036-.5.007-.733-.094-.885-.377-1.775-.36-2.75-.704-.982-.349-6.439 5.251-8.114 7.009-.307.32-.433.774-.336 1.207.2.895.55 2.444.786 3.408.357 1.42 3.95 1.02 5.893-.367 4.196-2.998 13.1-11.998 16.964-12.231 2.6-.155-4.378 3.659.465 12.45 2 3.634 13.26 2.401 19.614 1.384.253-.037.49-.15.678-.323.315-.293.66-.55 1.029-.77m60.825-9.52c-.457.01-8.368 2.023-8.814 2.098-1.186.194-1.875-.172-2.857.432-5.547.877-12.79 4.36-16.858 8.087-3.525 3.242-8.189 6.847-11.207 11.987-2.564 4.37-4.678 8.726-.6 11.803l.232-.56c.268.21.588.34.925.377 1.458.172 3.058-.115 4.179-.935.214-.15.036-1.175-.157-1.07-2.379 1.21-2.997 2.217-3.329-.288a4.295 4.295 0 0 1 .254-1.999c.021-.054.046-.111.064-.172l.047-.061-.011-.022c.168-.446.371-.877.518-1.33.935-2.947 9.66-13.899 10.225-14.107 1.178-.428 2.285-1.043 3.393-1.618 1.135-.593 2.389-.963 3.45-1.682 3.392-2.293 17.792-5.89 20.178-6.743.072-.021.99.101.872-.754-.161-1.161-.447-2.333-.5-3.447"/><path d="M190.629 36.733a3.548 3.548 0 0 0-.6-.496c.446-.226.857-.485 1.146-.787.112-.111.204-.24.275-.38.471-.482.686-1.065.196-1.683-.5-.633-1.403-.88-2.114-1.193-.982-.435-1.928-.87-3.018-1.032-1.835-.27-3.014.77-4.371 1.74-.429.208-.854.431-1.26.665-.558.323-1 .697-1.365 1.107-.607.449-1.143.967-1.475 1.581-1.304 2.44-2.06 5.87-1.357 8.67l-.047.15c.15 1.025.732 1.855 1.729 2.653.971.78 5.786 1.804 7.964.439 3.207-2.013 4.936-4.26 5.093-4.482.087-.12.1-.278.036-.41 1.175-2.491 1.146-4.533-.832-6.542zm-7.622 4.21c.268-.303.554-.605.864-.896.383-.366.743-.755 1.111-1.136.575-.23 1.086-.59 1.643-.844a11.914 11.914 0 0 1 1.718-.604.591.591 0 0 1 .228.234c.765 1.387.679 2.803.115 4.061a.393.393 0 0 0-.104.072c-.953.79-1.736 1.69-2.803 2.264l-.072.025a6.779 6.779 0 0 0-.393.18 31.7 31.7 0 0 1-.821.288c-.522.143-1.054.259-1.572.424-.667.215-1.2.277-1.492-.086.339-1.388.857-2.678 1.578-3.983zm66.768 1.954c-.04-.115-.146-.204-.3-.169l-.036.011c-.264-.08-.542-.1-.814-.057a.091.091 0 0 0-.036-.025c-.18-.107-.36-.213-.543-.317a.37.37 0 0 0-.403.03.589.589 0 0 0-.407-.497c-2.09-.6-3.207.313-5.236.7-1.021.195-4.471 1.428-3.9-.707.025-.094-.043-.205-.054-.32.1-.46.168-.924.229-1.391l.021-.19-.014-.241c.179-.72.393-1.438.464-1.952.265-1.78 1.379-3.688-.553-4.773-.45-.255-1.832-1.09-2.579-.866-.039.007-.085.007-.128.018-.2.036-.5.298-.854.69a5.106 5.106 0 0 0-.26.18 3.16 3.16 0 0 0-.372-.468c-.276.016-.55.06-.818.133-1.114-.1-2.507.431-3.393.719-1.793.586-3.989 1.57-5.535 2.645a10.086 10.086 0 0 0-3.525 4.32c-.4.993-.965 2.121-1.218 3.164-.2.798.064 1.243.671 1.721.179.14.375.144.536.076.107.967.69 1.639 1.49 2.084l.106.202.422.054c.907.37 1.985.503 2.96.481.879.036 1.765-.029 2.604-.28a5.806 5.806 0 0 0 1.536-.719l.06-.014.093-.087c1.518-1.042 2.75-2.731 3.722-4.413.071.64.189 1.268.393 1.89.567 1.75 1.628 2.714 3.475 2.815.342.017.689.021 1.035.01.961.043 4.193-.762 4.857-1.028 1.197-.485 1.09-.474 2.283-.97 1.289-.528 2.832-1.168 3.985-1.959.168-.115.204-.37.036-.503v.003zm-18.74-4.762a8.113 8.113 0 0 0-.217.399c-.397.79-.818 1.517-1.364 2.189-.572.582-1.229 1.053-1.929 1.474-.171.107-.479.312-.8.503-.168-.054-.31-.137-.382-.277v-.01l.125-.55a.314.314 0 0 0-.093-.31c.179-.431.393-.859.586-1.294.589-.7 1.26-1.351 1.878-2.02.754-.82 1.747-1.322 2.793-1.714-.203.539-.39 1.078-.596 1.606v.004z"/><path d="M225.875 37.754c-.929.115-1.729.888-2.446 1.452-1.008.79-1.868 1.718-2.858 2.513-.5.194-.928.513-1.407.761-1 .51-2.132.97-3.228 1.226-1.079.252-2.215.252-3.329.14a.56.56 0 0 1-.06-.233l.05-.094.003-.003c.171-.327.318-.658.471-.989.95-1.046 1.893-2.663.818-3.677-.446-1.056-2.321-1.351-3.343-1.56-.614-.125-2.214-.19-2.389-.923-.075-.338.543-1.305.679-1.636.125-.294.21-.546.268-.805l.185-.24a1.044 1.044 0 0 0-.1-.339c0-.035-.014-.064-.039-.079-.264-.488-.893-.938-1.66-1.347-.786-.05-.472 0-1.25-.047a7.24 7.24 0 0 0-.808 0c-.064-.018-.121-.036-.193-.05-.01.025-.028.043-.039.064-.796.072-1.479.284-2.243.615-.968.417-2.346.765-2.828 1.531-.575.917-.475 1.585-.186 2.063a9.01 9.01 0 0 0-.272 1.028c-.05.108-.096.212-.153.31a5.437 5.437 0 0 1-1.464 1.649 15.806 15.806 0 0 1-8.943 1.696l-.122.108c-1.675-.683-3.232-1.603-4.757-2.444-.278-.158-.69.007-.643.252.157.826-.571 1.61-1.028 2.35a3.153 3.153 0 0 1-.507-.506c-.083-.112-.304-.094-.29.075.054.676.732 1.09 1.207 1.488.772.643 1.44 1.276 2.447 1.52 2.102.488 4.286.498 6.393.03 1.007.078 2.1-.04 2.928-.166 1.947-.295 3.911-1.035 5.75-1.776.632-.205 1.147-.41 1.39-.593l.235-.161c.436-.195.879-.338 1.279-.292.596.072 1.21.331 1.821.407.643.086 1.286.168 1.94.19.489.018 1.242-.22 1.814-.226-.418.941-1.057 1.93-1.354 2.936a4.278 4.278 0 0 0-.128.209l-.211.593c-.121.366-.429.837-.296 1.229l.032.065c.013.263.084.521.207.754.246.504.482 1.035.936 1.452.157 0 .31.015.464.026 1.05.596 2.293.55 3.51.251 8.972-1.128 14.547-3.04 13.95-3.35-.27-.143-.06-4.176-.232-4.453-.989.65-1.217 1.484-2.121 2.29-.036.079 0 0 .143.043-.132.093-.979.52-1.122.596l-.032.011c.068-.273-.082-.586-.457-.593a1.829 1.829 0 0 0-.582.1c.171-.1.343-.215.5-.344.296-.252.086-.72-.25-.787.525-.464 1.007-.978 1.536-1.442.657-.575 1.689-1.574 2.557-1.808.571-.154.482-1.139-.143-1.06"/><path d="M189.479 41.18l-8.136-.428.228-4.17 8.133.432-.225 4.169v-.004zm-41.168-5.676c-3.179 1.053-5.954 3.9-8.647 5.82-1.089.775-2.146 1.624-3.207 2.443-.621.478-1.193 1.043-1.821 1.499-.986.708-1.975.762-3.036.27-.321-.766-.182-1.618-.143-2.42.05-1.096.11-2.213.132-3.306v-.054c.122-.863.25-1.732.393-2.606.149-1.008.361-2.006.636-2.987-1.41-.992-2.482-.833-3.379-.187a2.152 2.152 0 0 0-1.285-1.488c-1.479-.647-2.415-.143-3.672.644-.407.251-.81.51-1.214.769-.44.18-.875.381-1.293.586-.707.341-1.275.84-1.94 1.24-.635.374-1.314.629-1.939 1.028-.875.557-1.685 1.186-2.382 1.912-.164.119-.328.23-.489.352a31.338 31.338 0 0 0-1.557 2.063c-1.104 1.64-1.336 3.17-.982 5.065l.025.107c-.093.565.257 1.517.382 1.823.318.776.928 1.197 1.636 1.62 1.875 1.14 4.06 1 5.95-.02 1.739-.946 2.921-2.761 4.139-4.375.293-.302.593-.6.91-.884a.24.24 0 0 1 .068-.05c.19-.292.393-.576.597-.856.364-.327.743-.625 1.136-.913a.438.438 0 0 1 0 .119c-.05.463.007.916.125 1.362 0 .334.014.661.021.97.021.755.154 1.438.593 2.07 1.164 1.668 2.96 2.668 5.018 2.556.21-.01.414-.04.625-.075l.343-.004.039.01.41-.046c.265.065 1.093-.05 1.23-.237a10.525 10.525 0 0 0 1.892-.726c.971-.489 1.807-1.179 2.786-1.668.96-.474 1.871-.977 2.8-1.506 1.457-.826 4.068-1.47 4.893-3.015.153-.288-.104-.683-.447-.575a8.91 8.91 0 0 0-1.114.442c-.24-.468-.536-.996-.379-1.079.493-.251 1.118-.478 1.536-.844.536-.468.51-1.168.446-1.808-.225.61-1.25.762-1.35 0a16.174 16.174 0 0 0-.057-.424 65.415 65.415 0 0 0 1.965-1.071c.5-.288.175-1.736-.393-1.546zm-25.29 5.118c-.25.216-1.86 1.294-3.003 2.15.453-1.427 1.26-2.854 2.06-3.605.73-.68 1.78-1.222 2.743-1.532.008.022.022.036.029.054a.808.808 0 0 1 .414.17c-.66 1.038-1.296 1.951-2.243 2.763z"/></g></svg>
